{
  "accessors": [
    {
      "bufferView": 2,
      "componentType": 5126,
      "count": 65532,
      "max": [
        7.676509857177734,
        6.061766147613525,
        1.9879519939422607
      ],
      "min": [
        -13.644730567932129,
        -11.28958797454834,
        -0.27085399627685547
      ],
      "type": "VEC3"
    },
    {
      "bufferView": 2,
      "byteOffset": 786384,
      "componentType": 5126,
      "count": 65532,
      "max": [
        0.9999616146087646,
        0.9999719858169556,
        0.9999998807907104
      ],
      "min": [
        -0.9998772144317627,
        -0.9999958872795105,
        -0.9954773783683777
      ],
      "type": "VEC3"
    },
    {
      "bufferView": 1,
      "componentType": 5126,
      "count": 65532,
      "max": [
        0.9992679953575134,
        0.999243974685669
      ],
      "min": [
        0.0007319999858736992,
        0.0007559999939985573
      ],
      "type": "VEC2"
    },
    {
      "bufferView": 0,
      "componentType": 5125,
      "count": 288288,
      "type": "SCALAR"
    },
    {
      "bufferView": 2,
      "byteOffset": 1572768,
      "componentType": 5126,
      "count": 65532,
      "max": [
        18.189258575439453,
        31.239063262939453,
        3.8602049350738525
      ],
      "min": [
        -47.87540817260742,
        -27.683080673217773,
        -0.9653170108795166
      ],
      "type": "VEC3"
    },
    {
      "bufferView": 2,
      "byteOffset": 2359152,
      "componentType": 5126,
      "count": 65532,
      "max": [
        0.9998770952224731,
        0.9998746514320374,
        0.9999997615814209
      ],
      "min": [
        -0.9999927878379822,
        -0.9999814629554749,
        -0.9995913505554199
      ],
      "type": "VEC3"
    },
    {
      "bufferView": 1,
      "byteOffset": 524256,
      "componentType": 5126,
      "count": 65532,
      "max": [
        0.9992679953575134,
        0.999243974685669
      ],
      "min": [
        0.0007319999858736992,
        0.0007559999939985573
      ],
      "type": "VEC2"
    },
    {
      "bufferView": 0,
      "byteOffset": 1153152,
      "componentType": 5125,
      "count": 302190,
      "type": "SCALAR"
    },
    {
      "bufferView": 2,
      "byteOffset": 3145536,
      "componentType": 5126,
      "count": 65532,
      "max": [
        20.647958755493164,
        21.01731300354004,
        2.819870948791504
      ],
      "min": [
        -13.908427238464355,
        -28.30362319946289,
        -0.39672499895095825
      ],
      "type": "VEC3"
    },
    {
      "bufferView": 2,
      "byteOffset": 3931920,
      "componentType": 5126,
      "count": 65532,
      "max": [
        0.9999080896377563,
        0.9999602437019348,
        0.9999998807907104
      ],
      "min": [
        -0.9999781250953674,
        -0.9998228549957275,
        -0.9932844638824463
      ],
      "type": "VEC3"
    },
    {
      "bufferView": 1,
      "byteOffset": 1048512,
      "componentType": 5126,
      "count": 65532,
      "max": [
        0.9992679953575134,
        0.999243974685669
      ],
      "min": [
        0.0007319999858736992,
        0.014750000089406967
      ],
      "type": "VEC2"
    },
    {
      "bufferView": 0,
      "byteOffset": 2361912,
      "componentType": 5125,
      "count": 302994,
      "type": "SCALAR"
    },
    {
      "bufferView": 2,
      "byteOffset": 4718304,
      "componentType": 5126,
      "count": 34378,
      "max": [
        -5.001788139343262,
        6.020895004272461,
        2.080672025680542
      ],
      "min": [
        -13.674845695495605,
        -11.210948944091797,
        -0.31464698910713196
      ],
      "type": "VEC3"
    },
    {
      "bufferView": 2,
      "byteOffset": 5130840,
      "componentType": 5126,
      "count": 34378,
      "max": [
        0.9999096393585205,
        0.9999602437019348,
        0.9999996423721313
      ],
      "min": [
        -0.9999319911003113,
        -0.9999931454658508,
        -0.9836265444755554
      ],
      "type": "VEC3"
    },
    {
      "bufferView": 1,
      "byteOffset": 1572768,
      "componentType": 5126,
      "count": 34378,
      "max": [
        0.9992679953575134,
        0.999243974685669
      ],
      "min": [
        0.0007319999858736992,
        0.10867399722337723
      ],
      "type": "VEC2"
    },
    {
      "bufferView": 0,
      "byteOffset": 3573888,
      "componentType": 5125,
      "count": 152385,
      "type": "SCALAR"
    }
  ],
  "asset": {
    "extras": {
      "author": "vrchris (https://sketchfab.com/vrchris)",
      "license": "CC-BY-4.0 (http://creativecommons.org/licenses/by/4.0/)",
      "source": "https://sketchfab.com/3d-models/battlefield-1-ballroom-blitz-0cc7fa8e78ff4536ae693fe7a9609da0",
      "title": "Battlefield 1 - Ballroom Blitz"
    },
    "generator": "Sketchfab-12.67.0",
    "version": "2.0"
  },
  "bufferViews": [
    {
      "buffer": 0,
      "byteLength": 4183428,
      "name": "floatBufferViews",
      "target": 34963
    },
    {
      "buffer": 0,
      "byteLength": 1847792,
      "byteOffset": 4183428,
      "byteStride": 8,
      "name": "floatBufferViews",
      "target": 34962
    },
    {
      "buffer": 0,
      "byteLength": 5543376,
      "byteOffset": 6031220,
      "byteStride": 12,
      "name": "floatBufferViews",
      "target": 34962
    }
  ],
  "buffers": [
    {
      "byteLength": 11574596,
      "uri": "scene.bin"
    }
  ],
  "extensionsUsed": [
    "KHR_materials_unlit"
  ],
  "images": [
    {
      "uri": "textures/Material_0_baseColor.jpeg"
    }
  ],
  "materials": [
    {
      "extensions": {
        "KHR_materials_unlit": {}
      },
      "name": "Material_0",
      "pbrMetallicRoughness": {
        "baseColorTexture": {
          "index": 0
        },
        "metallicFactor": 0.0
      }
    }
  ],
  "meshes": [
    {
      "name": "Object_0",
      "primitives": [
        {
          "attributes": {
            "NORMAL": 1,
            "POSITION": 0,
            "TEXCOORD_0": 2
          },
          "indices": 3,
          "material": 0,
          "mode": 4
        }
      ]
    },
    {
      "name": "Object_1",
      "primitives": [
        {
          "attributes": {
            "NORMAL": 5,
            "POSITION": 4,
            "TEXCOORD_0": 6
          },
          "indices": 7,
          "material": 0,
          "mode": 4
        }
      ]
    },
    {
      "name": "Object_2",
      "primitives": [
        {
          "attributes": {
            "NORMAL": 9,
            "POSITION": 8,
            "TEXCOORD_0": 10
          },
          "indices": 11,
          "material": 0,
          "mode": 4
        }
      ]
    },
    {
      "name": "Object_3",
      "primitives": [
        {
          "attributes": {
            "NORMAL": 13,
            "POSITION": 12,
            "TEXCOORD_0": 14
          },
          "indices": 15,
          "material": 0,
          "mode": 4
        }
      ]
    }
  ],
  "nodes": [
    {
      "children": [
        1
      ],
      "matrix": [
        10.0,
        0.0,
        0.0,
        0.0,
        0.0,
        2.220446049250313e-15,
        -10.0,
        0.0,
        0.0,
        10.0,
        2.220446049250313e-15,
        0.0,
        0.0,
        0.0,
        0.0,
        1.0
      ],
      "name": "Sketchfab_model"
    },
    {
      "children": [
        2,
        3,
        4,
        5
      ],
      "name": "BallroomBlitz.obj.cleaner.materialmerger.gles"
    },
    {
      "mesh": 0,
      "name": "Object_2"
    },
    {
      "mesh": 1,
      "name": "Object_3"
    },
    {
      "mesh": 2,
      "name": "Object_4"
    },
    {
      "mesh": 3,
      "name": "Object_5"
    }
  ],
  "samplers": [
    {
      "magFilter": 9729,
      "minFilter": 9987,
      "wrapS": 10497,
      "wrapT": 10497
    }
  ],
  "scene": 0,
  "scenes": [
    {
      "name": "Sketchfab_Scene",
      "nodes": [
        0
      ]
    }
  ],
  "textures": [
    {
      "sampler": 0,
      "source": 0
    }
  ]
}
